<?xml version="1.0" encoding="UTF-8" standalone="no"?>
<!-- Uploaded to: SVG Repo, www.svgrepo.com, Generator: SVG Repo Mixer Tools -->

<svg
   fill="#000000"
   width="1000"
   height="1000"
   viewBox="0 0 640 640"
   id="_80_Globe"
   data-name="80 Globe"
   version="1.1"
   sodipodi:docname="resolve-accept-language.svg"
   inkscape:version="1.2.1 (9c6d41e, 2022-07-14)"
   xmlns:inkscape="http://www.inkscape.org/namespaces/inkscape"
   xmlns:sodipodi="http://sodipodi.sourceforge.net/DTD/sodipodi-0.dtd"
   xmlns="http://www.w3.org/2000/svg"
   xmlns:svg="http://www.w3.org/2000/svg">
  <defs
     id="defs6288" />
  <sodipodi:namedview
     id="namedview6286"
     pagecolor="#ffffff"
     bordercolor="#000000"
     borderopacity="0.25"
     inkscape:showpageshadow="2"
     inkscape:pageopacity="0.0"
     inkscape:pagecheckerboard="0"
     inkscape:deskcolor="#d1d1d1"
     showgrid="false"
     inkscape:zoom="0.295"
     inkscape:cx="62.711864"
     inkscape:cy="840.67797"
     inkscape:window-width="1706"
     inkscape:window-height="886"
     inkscape:window-x="0"
     inkscape:window-y="38"
     inkscape:window-maximized="0"
     inkscape:current-layer="_80_Globe" />
  <path
     id="Path_113"
     data-name="Path 113"
     d="m 326.4,576 c -141.375,0 -256,-114.625 -256,-256 0,-141.375 114.625,-256 256,-256 141.375,0 256,114.625 256,256 0,141.375 -114.625,256 -256,256 z m 0,-448 c -106.031,0 -192,85.969 -192,192 0,106.031 85.969,192 192,192 106.031,0 192,-85.969 192,-192 0,-106.031 -85.969,-192 -192,-192 z m 94.094,307.406 -5.625,3.281 -16.25,9.906 -9.594,6.969 a 150.807,150.807 0 0 1 -22.25,8.375 V 454.5 l -2.719,-21.719 c 0,0 -1.344,-12.531 -3.375,-15.812 a 28.03,28.03 0 0 0 -11.531,-9.906 c -4.75,-1.968 -8.125,-1.969 -10.844,-5.25 -2.719,-3.312 -4.75,-9.25 -8.125,-14.5 -3.406,-5.281 -7.469,-10.562 -7.469,-13.188 v -29.656 l 3.406,-25.031 7.438,-5.281 8.812,-9.875 6.094,-1.969 21,3.938 h 14.906 l 6.125,12.531 14.219,11.188 8.812,13.844 11.5,3.938 H 437.9 l 8.812,10.562 5.438,11.186 2.031,7.906 V 390.6 l -1.406,7.781 a 147.389,147.389 0 0 1 -32.281,37.025 z m -52.375,-227.344 -14.906,7.906 -5.406,15.156 -8.812,7.906 h -29.156 l -13.531,5.281 -0.688,10.531 -5.406,8.562 -1.375,9.25 2.719,7.906 3.375,7.906 c 0,0 8.156,9.219 0,15.812 0,0 -10.156,0 -12.188,-3.312 -2.031,-3.281 -16.938,-12.5 -19.656,-15.156 -2.688,-2.625 -11.5,-5.25 -11.5,-5.25 l -10.844,-3.969 -10.156,-0.656 0.656,-13.844 -0.656,-11.844 -4.094,-8.562 -11.5,-8.594 -0.688,-9.219 1.406,-5.125 a 153.288,153.288 0 0 1 172.5,-28 l -0.438,3.469 z"
     fill-rule="evenodd" />
  <path
     d="m 59.100574,481.11186 61.669296,61.66827 v 0 c 1.2883,1.2864 3.376,1.28853 4.6645,0 v 0 l 146.99946,-147.0016"
     stroke="#323232"
     stroke-width="42.6667"
     stroke-linecap="round"
     stroke-linejoin="round"
     id="path6008"
     style="fill:none;stroke:#008000;stroke-width:64;stroke-dasharray:none" />
</svg>
